<svg id="Layer_1" data-name="Layer 1" xmlns="http://www.w3.org/2000/svg" viewBox="0 0 429.66 163.83"><defs><style>.cls-1{fill:#fff;}</style></defs><title>replate-white</title><path class="cls-1" d="M285.74,146.33s-1.11,1.57-5.78,1.57c-2.18,0-4.12-2.78-4.12-2.78s-.65-63-.65-65.16A2.83,2.83,0,0,1,277,77.64s-2.82-1.18-2.82-3.86-1.95-56,4.39-56c7.22,0,4.63,56.56,4.63,56.56s-.23,3-2.59,3c0,0,5.18,3.52,5.18,8.1Z" transform="translate(-37.54 -17.59)"/><path class="cls-1" d="M151.59,134.11v11.13c-3.77,2.19-7.84,2.5-12.22,2.5-13.47,0-18.8-10.81-22.72-20.05-4.23-9.71-8.77-16.29-19.58-16.29H89.24v17.08c0,10.81-5.33,19.26-16.92,19.26A20.33,20.33,0,0,1,60.57,144v-10.8a12.62,12.62,0,0,0,9.09,4.07c5,0,7.36-4.39,7.36-8.77v-68H89.24V100.9h7.05c15.82,0,34-7.83,34-26.15,0-21.47-20.68-30.08-39.32-30.08-21,0-41.67,13-41.67,35.87,0,5.95,2,12.38,6.27,16.76l-8.77,7.84c-6.58-6.9-9.25-15.2-9.25-24.6,0-29.76,25.22-47.15,53.11-47.15C118.85,33.39,142,48,142,74.12c0,17.7-15.82,30.86-32.74,32.11,9.56,1.88,15,10,19,18.17,2.66,5.64,6.73,12.38,13.94,12.38C145.32,136.78,149.08,136,151.59,134.11Z" transform="translate(-37.54 -17.59)"/><path class="cls-1" d="M183.63,137.87c5.17,0,11.43-1.25,16.29-5v11.28c-5,2.66-11.44,3.6-16.14,3.6-17.7,0-31.48-12.21-31.48-29.29,0-15.51,12.84-28.82,28.35-28.82,10.34,0,17.86,4.38,24.12,12.22l-33.05,32.89A22.43,22.43,0,0,0,183.63,137.87Zm-21-19.42a18,18,0,0,0,2.82,10l25.07-25.22a17.26,17.26,0,0,0-10.18-3.76C169.84,99.5,162.63,108.27,162.63,118.45Z" transform="translate(-37.54 -17.59)"/><path class="cls-1" d="M267.75,118.61c0,15.82-11.75,29.13-27.89,29.13a23.81,23.81,0,0,1-20.05-10.49v44.17H208.38V91h11.43V100c4.55-6.9,11.91-10.34,20.05-10.34C256,89.63,267.75,102.94,267.75,118.61Zm-11.28,0c0-10.34-8.15-19.27-18.64-19.27-9.24,0-16.92,7-18,14.88V123c1.1,7.83,8.62,14.88,18,14.88C248.32,137.87,256.47,129,256.47,118.61Z" transform="translate(-37.54 -17.59)"/><path class="cls-1" d="M369.89,134.27v10.34a20,20,0,0,1-11.59,3.29c-7.05,0-12.69-4.7-14.57-12.06a23.62,23.62,0,0,1-21,11.9c-16.14,0-27.73-13.31-27.73-29.13,0-15.67,11.59-29,27.73-29A23.92,23.92,0,0,1,343,100V91h11.43v38.53c0,4.54,2.66,7.83,7.36,7.83A10.72,10.72,0,0,0,369.89,134.27ZM343,114.22c-1.1-7.83-8.78-14.88-18-14.88-10.5,0-18.64,8.93-18.64,19.27s8.14,19.26,18.64,19.26c9.4,0,16.92-7.05,18-14.88Z" transform="translate(-37.54 -17.59)"/><path class="cls-1" d="M441.86,137.87c5.17,0,11.43-1.25,16.29-5v11.28c-5,2.66-11.44,3.6-16.13,3.6-17.71,0-31.49-12.21-31.49-29.29,0-15.51,12.84-28.82,28.35-28.82,10.34,0,17.86,4.38,24.13,12.22L430,134.74A22.43,22.43,0,0,0,441.86,137.87Zm-21-19.42a17.91,17.91,0,0,0,2.83,10l25.06-25.22a17.23,17.23,0,0,0-10.18-3.76C428.07,99.5,420.86,108.27,420.86,118.45Z" transform="translate(-37.54 -17.59)"/><path class="cls-1" d="M406.76,101.69V91H389.53V55.64a1.28,1.28,0,0,0,.23-.14l4-3a4.18,4.18,0,0,0,1.65-3.33V17.59H392V46.52h-2.86V17.59h-3.47V46.52h-2.87V17.59H379.3V46.52h-2.86V17.59H373V49.16a4.18,4.18,0,0,0,1.65,3.33l3.56,2V91h-16.6v10.65h16.6V129.1c0,10.81,5.95,18.64,17.24,18.64,3.91,0,7.67-.78,10.8-3.29V134.27a12.67,12.67,0,0,1-8.77,3.29c-5.48,0-8-4.7-8-9.71V101.69Z" transform="translate(-37.54 -17.59)"/><path class="cls-1" d="M461.64,168.43s-40.93,13-79,13-79-13-79-13a5.56,5.56,0,0,1-5.56-5.56h0a5.56,5.56,0,0,1,5.56-5.56s42.89,13.48,79,13.48,79-13.48,79-13.48a5.56,5.56,0,0,1,5.56,5.56h0A5.56,5.56,0,0,1,461.64,168.43Z" transform="translate(-37.54 -17.59)"/></svg>