<svg xmlns="http://www.w3.org/2000/svg" width="26.598" height="30" viewBox="0 0 26.598 30"><path d="M13.993,34.05a2.332,2.332,0,0,1-1.155-.31L9.165,31.568c-.548-.31-.28-.417-.1-.476a7.235,7.235,0,0,0,1.661-.756.269.269,0,0,1,.274.024l2.822,1.673a.345.345,0,0,0,.339,0l11-6.346a.352.352,0,0,0,.167-.3V12.7a.355.355,0,0,0-.173-.3L14.16,6.053a.345.345,0,0,0-.339,0L2.837,12.4a.347.347,0,0,0-.173.3V25.388a.329.329,0,0,0,.173.292l3.012,1.738c1.637.816,2.637-.143,2.637-1.113V13.78a.315.315,0,0,1,.321-.316H10.2a.319.319,0,0,1,.321.316V26.311c0,2.179-1.191,3.429-3.256,3.429a4.675,4.675,0,0,1-2.53-.691L1.855,27.389A2.315,2.315,0,0,1,.7,25.382V12.7a2.322,2.322,0,0,1,1.155-2.006L12.838,4.345a2.41,2.41,0,0,1,2.31,0l11,6.352A2.315,2.315,0,0,1,27.3,12.7V25.388a2.329,2.329,0,0,1-1.155,2.006l-11,6.346A2.315,2.315,0,0,1,13.993,34.05Zm8.876-12.507c0-2.375-1.607-3.006-4.983-3.453-3.417-.452-3.762-.685-3.762-1.482,0-.661.292-1.542,2.822-1.542,2.256,0,3.09.488,3.435,2.012a.319.319,0,0,0,.31.25h1.429a.311.311,0,0,0,.232-.1.331.331,0,0,0,.083-.244c-.22-2.625-1.964-3.846-5.489-3.846-3.137,0-5.006,1.322-5.006,3.542,0,2.405,1.863,3.072,4.87,3.369,3.6.351,3.881.881,3.881,1.589,0,1.226-.988,1.75-3.3,1.75-2.911,0-3.548-.732-3.762-2.179a.315.315,0,0,0-.316-.268H11.886a.314.314,0,0,0-.316.316c0,1.851,1.006,4.06,5.822,4.06,3.477-.006,5.477-1.381,5.477-3.774Z" transform="translate(-0.7 -4.05)"/></svg>