<svg xmlns="http://www.w3.org/2000/svg" width="100" height="100" viewBox="0 0 100 100"><defs><style>.a{fill:#1f5c70;}</style></defs><path class="a" d="M56.235,32.7V27.208A52.9,52.9,0,0,1,45.669,2.753a3.112,3.112,0,0,0-5.43-1.621,52.668,52.668,0,0,0-9.55,16.9A46.93,46.93,0,0,0,56.235,32.7ZM78.109,12.539A15.638,15.638,0,0,0,62.485,28.184v11.6A53.043,53.043,0,0,1,16.978,8.2a3.118,3.118,0,0,0-5.664-.176,52.723,52.723,0,0,0-5.078,22.6c0,13.829,6.66,26.74,16.621,36.31a79.789,79.789,0,0,0,7.6,6.407L2.35,80.375A3.144,3.144,0,0,0,.495,85.141c3.4,5.254,11.8,14.161,29.921,14.9A6.281,6.281,0,0,0,34.732,98.5L47.466,87.543H62.485A31.225,31.225,0,0,0,93.734,56.311V25.04l6.25-12.5Zm0,18.771a3.125,3.125,0,1,1,3.125-3.125A3.134,3.134,0,0,1,78.109,31.31Z" transform="translate(0.016 -0.048)"/></svg>