<svg xmlns="http://www.w3.org/2000/svg" width="24.252" height="24.252" viewBox="0 0 24.252 24.252"><defs><style>.a{fill:#144b5e;}</style></defs><path class="a" d="M21.653,32H2.6A2.6,2.6,0,0,0,0,34.6V53.653a2.6,2.6,0,0,0,2.6,2.6H21.653a2.6,2.6,0,0,0,2.6-2.6V34.6A2.6,2.6,0,0,0,21.653,32ZM15.011,52.771c-.455.081-.623-.2-.623-.433,0-.292.011-1.786.011-2.994a2.109,2.109,0,0,0-.612-1.662c2-.222,4.114-.5,4.114-3.957a2.779,2.779,0,0,0-.926-2.111,3.386,3.386,0,0,0-.092-2.436c-.752-.233-2.474.969-2.474.969a8.516,8.516,0,0,0-4.5,0s-1.721-1.2-2.474-.969a3.359,3.359,0,0,0-.092,2.436A2.719,2.719,0,0,0,6.5,43.725c0,3.443,2.019,3.735,4.022,3.957a1.962,1.962,0,0,0-.574,1.207,1.9,1.9,0,0,1-2.615-.752,1.886,1.886,0,0,0-1.38-.926c-.877-.011-.06.552-.06.552.585.271,1,1.31,1,1.31.525,1.608,3.037,1.066,3.037,1.066,0,.752.011,1.976.011,2.2s-.162.514-.623.433A8.981,8.981,0,0,1,3.237,44.2a8.591,8.591,0,0,1,8.77-8.743A8.783,8.783,0,0,1,21,44.2,8.9,8.9,0,0,1,15.011,52.771ZM9.7,49.463c-.1.022-.2-.022-.211-.092s.06-.152.162-.173.2.032.211.1S9.809,49.442,9.7,49.463Zm-.514-.049c0,.07-.081.13-.189.13s-.2-.049-.2-.13.081-.13.189-.13S9.186,49.333,9.186,49.415Zm-.742-.06c-.022.07-.13.1-.222.07s-.173-.1-.152-.173.13-.1.222-.081C8.4,49.2,8.472,49.285,8.445,49.355Zm-.666-.292c-.049.06-.152.049-.233-.032s-.1-.173-.049-.222.152-.049.233.032S7.828,49.02,7.779,49.063Zm-.493-.493c-.049.032-.141,0-.2-.081s-.06-.173,0-.211.152-.011.2.07A.159.159,0,0,1,7.286,48.57Zm-.352-.525c-.049.049-.13.022-.189-.032-.06-.07-.07-.152-.022-.189s.13-.022.189.032C6.972,47.926,6.983,48.007,6.934,48.045Zm-.363-.4a.1.1,0,0,1-.152.022c-.07-.032-.1-.092-.081-.141a.127.127,0,0,1,.152-.022C6.561,47.542,6.593,47.6,6.572,47.645Z" transform="translate(0 -32)"/></svg>