<svg xmlns="http://www.w3.org/2000/svg" width="125" height="100" viewBox="0 0 125 100"><defs><style>.a{fill:#1f5c70;}</style></defs><path class="a" d="M95.294,37.521H65.607V48.459a14.062,14.062,0,1,1-28.125,0V24.707L24.806,32.325a12.474,12.474,0,0,0-6.074,10.7v9.239L3.107,61.292A6.236,6.236,0,0,0,.821,69.828L16.446,96.9a6.252,6.252,0,0,0,8.535,2.285l20.2-11.661h26.68a12.512,12.512,0,0,0,12.5-12.5h3.125a6.244,6.244,0,0,0,6.25-6.251v-12.5h1.563a4.676,4.676,0,0,0,4.687-4.688V42.208A4.676,4.676,0,0,0,95.294,37.521Zm28.848-7.305L108.517,3.143A6.252,6.252,0,0,0,99.981.857l-20.2,11.661H59.825A12.593,12.593,0,0,0,53.2,14.413L46.661,18.5a6.209,6.209,0,0,0-2.93,5.293v24.67a7.812,7.812,0,1,0,15.625,0V31.27H95.294a10.945,10.945,0,0,1,10.937,10.938v5.567l15.625-9.024A6.257,6.257,0,0,0,124.142,30.215Z" transform="translate(0.023 -0.022)"/></svg>