<svg xmlns="http://www.w3.org/2000/svg" width="24.252" height="24.252" viewBox="0 0 24.252 24.252"><defs><style>.a{fill:#144b5e;}</style></defs><path class="a" d="M22.519,32H1.727A1.74,1.74,0,0,0,0,33.749V54.5a1.74,1.74,0,0,0,1.727,1.749H22.519A1.744,1.744,0,0,0,24.252,54.5V33.749A1.744,1.744,0,0,0,22.519,32ZM7.33,52.787H3.735V41.213h3.6V52.787Zm-1.8-13.154a2.084,2.084,0,1,1,2.084-2.084A2.085,2.085,0,0,1,5.532,39.633ZM20.8,52.787H17.209v-5.63c0-1.343-.027-3.069-1.868-3.069-1.873,0-2.16,1.462-2.16,2.972v5.727H9.587V41.213h3.448v1.581h.049a3.786,3.786,0,0,1,3.4-1.868c3.638,0,4.314,2.4,4.314,5.516Z" transform="translate(0 -32)"/></svg>