<svg xmlns="http://www.w3.org/2000/svg" xmlns:xlink="http://www.w3.org/1999/xlink" width="33.479" height="30" viewBox="0 0 33.479 30"><defs><style>.a{fill:url(#a);}</style><linearGradient id="a" x1="0.5" x2="0.5" y2="1" gradientUnits="objectBoundingBox"><stop offset="0" stop-color="#f88a36"/><stop offset="1" stop-color="#fd2020"/></linearGradient></defs><path class="a" d="M25.253,27.924c-3.944,2.278-9.366,2.512-14.821.174A23.179,23.179,0,0,1,0,19.171,17.576,17.576,0,0,0,3.853,21.52c5.634,2.641,11.266,2.46,15.23.007l-.006-.007a80.877,80.877,0,0,1-14-14.566,16.084,16.084,0,0,1-1.88-2.537A108.458,108.458,0,0,0,16.821,14.755,100.41,100.41,0,0,1,7.236,2.725,95.318,95.318,0,0,0,23.024,15.694c.252.142.446.26.6.366a12.366,12.366,0,0,0,.431-1.306C25.374,9.962,23.87,4.511,20.581,0,28.192,4.6,32.7,13.25,30.824,20.487q-.074.293-.16.577l.066.081c3.759,4.7,2.725,9.679,2.255,8.74-2.039-3.99-5.814-2.77-7.733-1.96Z" transform="translate(0 0)"/></svg>